<?xml version="1.0" standalone="no"?>
<!DOCTYPE svg PUBLIC "-//W3C//DTD SVG 20010904//EN"
 "http://www.w3.org/TR/2001/REC-SVG-20010904/DTD/svg10.dtd">
<svg version="1.0" xmlns="http://www.w3.org/2000/svg"
 width="300.000000pt" height="262.000000pt" viewBox="0 0 300.000000 262.000000"
 preserveAspectRatio="xMidYMid meet">
<metadata>
Created by potrace 1.10, written by Peter Selinger 2001-2011
</metadata>
<g transform="translate(0.000000,262.000000) scale(0.100000,-0.100000)"
fill="#000000" stroke="none">
<path d="M1264 2290 c-534 -113 -893 -601 -843 -1146 24 -254 129 -473 314
-657 192 -190 430 -292 705 -304 609 -26 1110 456 1110 1069 0 147 -46 341
-110 468 -67 133 -193 285 -311 375 -122 94 -309 175 -473 204 -94 17 -288 12
-392 -9z m366 -20 c11 -7 9 -11 -14 -20 -34 -12 -44 -7 -26 15 14 17 20 18 40
5z m145 -40 c10 -11 16 -22 13 -25 -7 -7 -68 27 -68 38 0 15 38 6 55 -13z
m-41 -39 c337 -93 590 -344 693 -686 24 -83 27 -104 27 -260 0 -157 -2 -177
-28 -260 -70 -231 -204 -419 -387 -542 -102 -69 -157 -95 -279 -134 -102 -33
-110 -34 -275 -34 -148 0 -180 3 -250 23 -341 99 -597 347 -690 669 -103 356
-4 731 260 982 119 113 223 176 369 225 175 58 387 65 560 17z m129 -7 c-8
-22 -23 -6 -23 24 1 25 2 26 15 9 7 -11 11 -25 8 -33z m47 5 c7 -11 19 -19 30
-17 11 2 20 -1 22 -7 2 -5 -7 -11 -20 -13 -25 -4 -62 23 -62 45 0 20 18 16 30
-8z m161 -88 l24 -20 -30 2 c-19 2 -31 9 -33 20 -5 22 10 22 39 -2z"/>
<path d="M1560 2161 c0 -19 48 -81 63 -81 8 1 6 5 -3 13 -9 7 -25 28 -38 47
-12 19 -22 29 -22 21z"/>
<path d="M1737 2115 c-14 -14 -36 -25 -49 -25 -20 -1 -21 -2 -6 -10 22 -13 63
3 78 30 17 31 8 33 -23 5z"/>
<path d="M1384 2039 c-265 -31 -501 -201 -619 -444 -65 -133 -79 -197 -79
-350 0 -113 4 -142 28 -220 80 -265 275 -461 541 -545 88 -28 271 -38 370 -21
289 51 544 280 626 562 29 101 36 288 16 386 -31 145 -93 263 -197 375 -81 89
-151 141 -254 188 -134 62 -287 87 -432 69z m151 -41 c41 4 44 -6 10 -38 -22
-20 -25 -21 -31 -6 -5 13 -9 14 -20 5 -12 -9 -14 -5 -14 27 0 28 3 35 10 24 6
-9 21 -14 45 -12z m-61 -62 c9 -14 27 -59 41 -100 32 -96 34 -206 4 -286 -12
-30 -24 -80 -29 -110 -7 -54 -7 -54 -9 -12 -1 44 -5 46 -51 33 -23 -6 -28 -2
-59 63 -22 47 -55 90 -100 135 -67 67 -170 131 -211 131 -35 0 -19 20 50 61
79 49 155 78 245 94 97 18 101 18 119 -9z m231 -14 c49 -15 154 -69 205 -107
l48 -35 -10 -43 c-25 -114 -113 -240 -203 -290 -77 -44 -98 -47 -134 -24 -21
13 -31 25 -27 36 60 185 59 328 -4 451 -11 22 -20 41 -20 44 0 4 88 -15 145
-32z m-692 -107 c-3 -9 2 -24 12 -35 17 -19 16 -19 -39 -18 l-56 2 32 33 c33
35 62 44 51 18z m1033 -62 c26 -34 26 -36 6 -31 -14 4 -31 -1 -47 -14 l-25
-19 6 44 c4 26 2 53 -6 66 -11 22 -11 22 14 6 13 -9 37 -33 52 -52z m-961 -68
c89 -43 165 -118 210 -207 l34 -68 -26 -39 -25 -38 -46 17 c-77 29 -182 41
-259 30 -75 -10 -144 -32 -181 -56 -24 -16 -24 -16 -17 18 28 141 66 231 140
333 36 50 43 55 70 50 17 -4 62 -21 100 -40z m1021 -95 c32 -56 55 -119 74
-207 l18 -81 -47 -29 c-140 -88 -276 -102 -406 -43 -35 16 -45 26 -45 44 0 14
-2 30 -5 38 -4 9 17 23 62 43 90 39 177 125 226 225 21 40 37 80 37 90 0 44
31 15 86 -80z m-541 -180 c3 -5 -7 -5 -25 1 -34 12 -34 13 -19 41 11 20 11 19
24 -6 8 -14 16 -30 20 -36z m-155 0 c0 -7 -44 -40 -52 -40 -2 0 -2 18 0 40 4
39 4 39 28 23 13 -8 24 -19 24 -23z m137 -50 c44 -27 66 -64 67 -115 1 -53
-24 -92 -78 -119 -49 -24 -97 -15 -143 28 -46 42 -56 112 -23 164 37 59 118
78 177 42z m133 4 c0 -3 -7 -16 -16 -30 l-17 -24 -23 32 c-13 17 -24 32 -24
33 0 0 18 -1 40 -3 22 -2 40 -6 40 -8z m-916 -63 l28 -29 -27 -18 c-23 -15
-28 -15 -36 -3 -14 22 -10 79 6 79 1 0 14 -13 29 -29z m556 12 c0 -20 -13 -53
-20 -53 -5 0 -16 7 -25 16 -15 15 -14 18 7 29 28 16 38 18 38 8z m-130 -42
c65 -20 65 -20 77 -68 6 -26 10 -48 9 -48 -15 0 -143 -76 -178 -105 -55 -47
-129 -156 -151 -220 l-15 -44 -44 69 c-69 107 -117 250 -118 345 0 18 92 68
160 87 60 17 178 10 260 -16z m1048 -11 c-3 -21 0 -30 9 -30 8 0 11 -5 7 -11
-4 -8 -25 -9 -61 -5 -49 6 -54 4 -63 -16 -8 -22 -9 -22 -9 5 -1 26 1 27 45 27
27 0 43 4 39 10 -8 12 12 50 26 50 7 0 9 -12 7 -30z m-528 -40 c0 -5 -15 -10
-34 -10 -19 0 -38 5 -41 10 -4 6 10 10 34 10 23 0 41 -4 41 -10z m470 -114
c-11 -49 -31 -114 -45 -145 -31 -68 -106 -181 -120 -181 -22 0 -105 30 -154
55 -93 47 -170 132 -202 224 -10 27 -8 38 7 67 13 24 23 32 34 28 150 -67 324
-59 455 20 22 14 41 24 42 22 1 -1 -7 -41 -17 -90z m-835 38 c20 -31 19 -33
-22 -27 -29 5 -31 7 -21 29 14 31 22 30 43 -2z m270 -54 c0 -22 -1 -40 -3 -40
-1 0 -14 7 -28 16 l-25 17 22 23 c31 33 35 30 34 -16z m-244 -33 c35 -21 36
-24 24 -48 -58 -110 -58 -299 -1 -424 l23 -52 -46 9 c-124 23 -232 70 -326
141 l-42 33 23 68 c27 81 60 133 122 192 42 41 150 104 176 104 6 0 27 -11 47
-23z m73 17 c17 -6 23 -44 7 -44 -5 0 -16 11 -25 25 -16 25 -11 30 18 19z
m136 -46 c0 -6 12 -36 27 -67 51 -103 183 -209 305 -244 l41 -12 -55 -37
c-112 -74 -234 -120 -343 -129 -39 -4 -40 -3 -67 51 -56 112 -62 260 -17 375
20 51 29 61 54 66 47 10 55 10 55 -3z m-603 -283 c-1 -30 -5 -55 -8 -55 -6 0
-79 77 -79 83 0 2 13 2 28 -1 18 -2 33 2 41 12 8 9 15 16 17 16 2 0 2 -25 1
-55z m1057 -17 c-9 -13 -30 -34 -46 -47 l-29 -23 7 26 c4 19 1 33 -12 48 l-19
21 40 -6 c22 -4 47 -2 55 3 22 14 24 4 4 -22z m-879 -148 c7 -12 -32 -12 -60
0 -16 7 -13 9 17 9 20 1 40 -3 43 -9z m710 0 c-28 -12 -55 -12 -55 0 0 6 17
10 38 9 30 0 33 -2 17 -9z m-397 -63 c4 -20 -21 -32 -44 -23 -15 6 -15 8 1 26
21 23 38 21 43 -3z"/>
<path d="M2212 2268 c-21 -21 -13 -37 30 -59 31 -16 38 -23 27 -30 -8 -5 -26
-6 -41 -3 -30 6 -39 -10 -12 -20 45 -17 93 6 80 40 -3 9 -20 21 -36 27 -40 15
-41 42 0 34 31 -7 50 7 24 17 -25 10 -59 7 -72 -6z"/>
<path d="M2636 2253 c-4 -9 -1 -20 5 -24 6 -4 8 -12 4 -18 -12 -21 4 -61 25
-61 23 0 27 15 5 24 -8 3 -15 17 -15 31 0 16 6 25 15 25 19 0 19 7 1 26 -19
19 -32 18 -40 -3z"/>
<path d="M1995 2240 c-7 -11 -1 -13 32 -10 16 1 24 -6 29 -25 4 -18 10 -23 17
-16 16 16 -19 61 -48 61 -13 0 -27 -4 -30 -10z"/>
<path d="M2094 2234 c3 -9 6 -31 6 -50 0 -19 5 -34 11 -34 7 0 9 10 5 26 -7
28 7 54 30 54 10 0 14 -13 14 -40 0 -26 5 -40 13 -40 10 0 11 12 7 48 l-5 47
-43 2 c-36 1 -43 -1 -38 -13z"/>
<path d="M2324 2229 c-17 -19 -17 -23 -3 -47 10 -19 23 -27 42 -27 15 0 27 4
27 10 0 5 -10 10 -23 10 -32 0 -32 49 1 53 29 4 29 22 -1 22 -13 0 -32 -9 -43
-21z"/>
<path d="M2416 2229 c-36 -52 35 -108 77 -61 22 24 21 45 -1 65 -25 23 -58 21
-76 -4z m63 -12 c15 -19 -10 -53 -33 -44 -16 6 -22 38 -9 50 10 11 30 8 42 -6z"/>
<path d="M2525 2213 c10 -60 12 -63 50 -61 l35 1 0 49 c0 26 -4 48 -10 48 -5
0 -10 -16 -10 -35 0 -23 -6 -38 -16 -42 -21 -8 -34 15 -27 49 4 22 2 28 -11
28 -14 0 -16 -7 -11 -37z"/>
</g>
</svg>
